<?xml version="1.0" standalone="no"?>
<!DOCTYPE svg PUBLIC "-//W3C//DTD SVG 20010904//EN"
 "http://www.w3.org/TR/2001/REC-SVG-20010904/DTD/svg10.dtd">
<svg version="1.0" xmlns="http://www.w3.org/2000/svg"
 width="512.000000pt" height="512.000000pt" viewBox="0 0 512.000000 512.000000"
 preserveAspectRatio="xMidYMid meet">
<metadata>
Created by potrace 1.14, written by Peter Selinger 2001-2017
</metadata>
<g transform="translate(0.000000,512.000000) scale(0.100000,-0.100000)"
fill="#000000" stroke="none">
<path d="M2296 4829 c-16 -15 -34 -19 -100 -20 -88 -1 -100 -2 -191 -13 -33
-5 -62 -8 -65 -8 -3 -1 -54 -14 -114 -29 -178 -47 -328 -112 -474 -207 -31
-20 -62 -35 -68 -34 -13 3 -165 -120 -225 -181 -56 -57 -222 -236 -284 -307
-93 -105 -180 -256 -241 -416 -13 -34 -20 -64 -17 -67 3 -4 -2 -28 -10 -55
-25 -74 -67 -245 -73 -294 -3 -24 -7 -48 -9 -55 -8 -25 -19 -192 -19 -298 0
-103 8 -232 19 -300 3 -16 7 -41 9 -55 2 -14 9 -53 16 -86 8 -41 9 -68 2 -79
-6 -12 -5 -36 5 -74 8 -31 17 -65 19 -75 7 -39 67 -223 90 -281 66 -160 165
-330 293 -505 47 -63 73 -89 86 -84 6 3 37 -26 67 -63 219 -269 518 -505 833
-659 77 -37 147 -76 156 -87 22 -26 269 -113 378 -132 19 -3 37 -7 40 -9 3 -2
40 -7 81 -12 171 -18 435 -3 493 27 11 6 34 13 51 16 90 13 292 73 381 113
139 63 256 115 295 133 65 30 206 114 270 161 57 41 66 49 164 138 32 29 68
58 80 65 21 12 96 94 152 167 81 107 172 289 208 416 9 30 16 57 15 60 0 3 4
17 9 31 6 14 13 43 16 63 4 21 9 43 12 48 3 5 0 15 -6 23 -9 10 -10 29 -4 62
30 178 40 355 30 498 -8 106 -19 197 -33 270 -8 44 -17 93 -20 110 -2 16 -15
64 -27 106 -18 63 -20 80 -10 94 10 14 4 41 -37 163 -55 161 -134 329 -215
458 -83 132 -195 276 -210 270 -7 -3 -41 29 -84 79 -67 80 -224 241 -286 295
-137 116 -319 244 -456 319 -44 24 -80 51 -83 62 -4 13 -43 37 -111 70 -58 27
-109 49 -114 49 -6 0 -18 4 -28 9 -47 24 -163 61 -232 75 -150 29 -192 35
-273 37 -41 1 -67 6 -67 13 0 8 -2 8 -8 0 -8 -13 -42 -15 -42 -2 0 13 -14 8
-34 -13z"/>
</g>
</svg>
