<?xml version="1.0" standalone="no"?>
<!DOCTYPE svg PUBLIC "-//W3C//DTD SVG 20010904//EN"
 "http://www.w3.org/TR/2001/REC-SVG-20010904/DTD/svg10.dtd">
<svg version="1.0" xmlns="http://www.w3.org/2000/svg"
 width="512.000000pt" height="512.000000pt" viewBox="0 0 512.000000 512.000000"
 preserveAspectRatio="xMidYMid meet">
<metadata>
Created by potrace 1.14, written by Peter Selinger 2001-2017
</metadata>
<g transform="translate(0.000000,512.000000) scale(0.100000,-0.100000)"
fill="#000000" stroke="none">
<path d="M4477 5104 c-52 -12 -107 -36 -397 -172 -63 -29 -316 -146 -545 -252
-33 -15 -96 -44 -140 -65 -77 -36 -130 -60 -260 -120 -33 -15 -111 -52 -173
-81 -63 -30 -115 -54 -117 -54 -2 0 -55 -25 -120 -55 -64 -30 -118 -55 -119
-55 -2 0 -70 -31 -150 -70 -81 -38 -149 -70 -151 -70 -2 0 -50 -22 -107 -49
-84 -40 -615 -287 -863 -401 -33 -15 -96 -44 -140 -65 -44 -20 -105 -48 -135
-62 -30 -14 -106 -50 -169 -79 -62 -30 -115 -54 -117 -54 -2 0 -60 -27 -130
-60 -69 -33 -128 -60 -130 -60 -1 0 -64 -29 -138 -65 -190 -92 -271 -177 -320
-336 -48 -157 -17 -320 85 -451 18 -23 41 -49 51 -56 9 -7 24 -19 33 -28 15
-15 180 -108 640 -362 116 -63 224 -123 241 -132 16 -10 142 -79 280 -155 137
-76 272 -150 299 -165 28 -15 113 -62 190 -105 77 -42 143 -80 148 -84 6 -6
-49 -102 -310 -536 -59 -99 -80 -167 -82 -276 -3 -141 51 -271 151 -365 92
-86 181 -128 300 -138 64 -6 722 -13 1933 -21 l660 -4 69 24 c125 43 230 133
285 244 44 87 55 129 56 221 4 202 -98 364 -300 474 -49 27 -103 57 -120 66
-59 33 -351 193 -405 223 -30 16 -113 62 -185 102 -71 40 -150 83 -175 97 -25
14 -115 63 -200 110 -85 47 -180 100 -210 116 -30 17 -55 34 -55 39 0 7 269
459 340 573 23 36 307 509 328 545 6 11 26 44 44 72 18 29 33 54 33 56 0 2 24
44 54 93 30 49 112 185 183 303 70 117 138 230 150 250 13 20 26 42 29 49 3 7
37 63 75 125 37 61 84 139 104 172 19 33 40 67 45 75 5 8 46 76 90 150 44 74
85 142 90 150 52 79 82 176 85 273 8 229 -139 427 -370 498 -56 17 -171 19
-238 3z m-1177 -1659 c-7 -8 -22 -32 -34 -53 -18 -33 -705 -1181 -712 -1191
-2 -2 -88 43 -191 100 -103 57 -206 113 -228 125 -22 11 -103 56 -180 99 -136
76 -173 96 -262 145 -40 22 -55 40 -34 40 5 0 357 161 782 359 426 197 794
367 819 379 49 22 60 21 40 -3z"/>
</g>
</svg>
