<svg viewBox="0 0 320 320" xmlns="http://www.w3.org/2000/svg" fill-rule="evenodd" clip-rule="evenodd" stroke-linejoin="round" stroke-miterlimit="2"><path fill="#e6e6e6" d="M0 0h320v320H0z"/><g fill="#9b9b9b" fill-rule="nonzero"><path d="M181.347 94H50v26.399h105.076L181.347 94z"/><path d="M221.132 199.599l37.326-37.511c15.388-15.465 15.388-40.539 0-56.004-15.388-15.464-40.336-15.464-55.726 0l-40.512 40.715H50v26.399l123.038.066 48.271-48.511c5.128-5.155 13.444-5.155 18.575 0 5.129 5.154 5.129 13.511 0 18.666L157.713 226H270v-26.401h-48.868z"/><path d="M50 199.599v26.399h70.564l26.268-26.399H50z"/></g></svg>
